<svg xmlns="http://www.w3.org/2000/svg" xmlns:xlink="http://www.w3.org/1999/xlink" width="1920" zoomAndPan="magnify" viewBox="0 0 1440 809.999993" height="1080" preserveAspectRatio="xMidYMid meet" version="1.0"><defs><g/><clipPath id="c056ad3eaa"><path d="M 23.664062 212.054688 L 344.660156 212.054688 L 344.660156 585.554688 L 23.664062 585.554688 Z M 23.664062 212.054688 " clip-rule="nonzero"/></clipPath><clipPath id="622bff54d0"><path d="M 184.269531 212.054688 L 344.878906 305.5 L 344.878906 492.390625 L 184.269531 585.835938 L 23.664062 492.390625 L 23.664062 305.5 Z M 184.269531 212.054688 " clip-rule="nonzero"/></clipPath></defs><path stroke-linecap="round" transform="matrix(3.705344, 4.360495, -4.360495, 3.705344, 101.153336, 343.911564)" fill="none" stroke-linejoin="miter" d="M 4.500104 4.499659 L 24.037603 4.500241 " stroke="#047d43" stroke-width="9" stroke-opacity="1" stroke-miterlimit="4"/><path stroke-linecap="round" transform="matrix(3.14265, -4.78197, 4.78197, 3.14265, 135.342376, 473.479988)" fill="none" stroke-linejoin="miter" d="M 4.500288 4.499965 L 53.138296 4.49982 " stroke="#047d43" stroke-width="9" stroke-opacity="1" stroke-miterlimit="4"/><g clip-path="url(#c056ad3eaa)"><g clip-path="url(#622bff54d0)"><path stroke-linecap="butt" transform="matrix(0.75, 0, 0, 0.75, 23.662265, 212.055156)" fill="none" stroke-linejoin="miter" d="M 214.143032 -0.000624309 L 428.288876 124.593132 L 428.288876 373.780644 L 214.143032 498.374401 L 0.0023963 373.780644 L 0.0023963 124.593132 Z M 214.143032 -0.000624309 " stroke="#d9d9d9" stroke-width="4" stroke-opacity="1" stroke-miterlimit="4"/></g></g><path stroke-linecap="round" transform="matrix(0.485654, 0.571524, -0.571524, 0.485654, 111.667383, 311.94604)" fill="none" stroke-linejoin="miter" d="M 39.001368 38.997937 L 196.562686 38.999378 " stroke="#00d756" stroke-width="78" stroke-opacity="1" stroke-miterlimit="4"/><path stroke-linecap="round" transform="matrix(0.411903, -0.626766, 0.626766, 0.411903, 146.445952, 452.306253)" fill="none" stroke-linejoin="miter" d="M 39.000214 38.998385 L 436.770793 38.999823 " stroke="#00d756" stroke-width="78" stroke-opacity="1" stroke-miterlimit="4"/><g fill="#000000" fill-opacity="1"><g transform="translate(225.34557, 510.446728)"><g><path d="M 38.234375 -108 C 38.234375 -75.695312 42.707031 -52.25 51.65625 -37.65625 C 60.613281 -23.0625 74.625 -15.765625 93.6875 -15.765625 L 95.734375 -15.765625 C 112.859375 -15.765625 125.210938 -20.773438 132.796875 -30.796875 C 140.390625 -40.816406 144.1875 -55.265625 144.1875 -74.140625 L 165.78125 -74.140625 L 165.78125 -71.21875 C 165.78125 -47.28125 159.894531 -28.890625 148.125 -16.046875 C 136.351562 -3.210938 118.304688 3.203125 93.984375 3.203125 C 67.910156 3.203125 48.5 -5.5 35.75 -22.90625 C 23.007812 -40.320312 16.640625 -68.6875 16.640625 -108 L 16.640625 -119.671875 C 16.640625 -159.171875 23.007812 -187.578125 35.75 -204.890625 C 48.5 -222.210938 67.910156 -230.875 93.984375 -230.875 C 118.304688 -230.875 136.351562 -224.304688 148.125 -211.171875 C 159.894531 -198.035156 165.78125 -178.625 165.78125 -152.9375 L 165.78125 -144.765625 L 144.1875 -144.765625 C 144.1875 -168.316406 140.390625 -185.394531 132.796875 -196 C 125.210938 -206.601562 112.859375 -211.90625 95.734375 -211.90625 L 93.6875 -211.90625 C 74.8125 -211.90625 60.847656 -204.65625 51.796875 -190.15625 C 42.753906 -175.65625 38.234375 -152.160156 38.234375 -119.671875 Z M 38.234375 -108 "/></g></g></g><g fill="#000000" fill-opacity="1"><g transform="translate(405.720371, 510.446728)"><g><path d="M 39.6875 -233.5 L 39.6875 -136.015625 C 44.363281 -142.242188 50.738281 -147.445312 58.8125 -151.625 C 66.882812 -155.8125 77.050781 -157.90625 89.3125 -157.90625 C 104.6875 -157.90625 116.363281 -153.234375 124.34375 -143.890625 C 132.320312 -134.554688 136.3125 -122.6875 136.3125 -108.28125 L 136.3125 0 L 115.875 0 L 115.875 -105.359375 C 115.875 -117.035156 112.859375 -125.644531 106.828125 -131.1875 C 100.796875 -136.738281 92.625 -139.515625 82.3125 -139.515625 C 74.332031 -139.515625 67.566406 -138.25 62.015625 -135.71875 C 56.472656 -133.1875 51.898438 -130.070312 48.296875 -126.375 C 44.703125 -122.6875 41.832031 -119.085938 39.6875 -115.578125 L 39.6875 0 L 19.265625 0 L 19.265625 -233.5 Z M 39.6875 -233.5 "/></g></g></g><g fill="#000000" fill-opacity="1"><g transform="translate(559.827019, 510.446728)"><g><path d="M 144.484375 -68.875 L 35.03125 -68.875 C 35.414062 -51.945312 39.351562 -38.570312 46.84375 -28.75 C 54.332031 -18.925781 65.765625 -14.015625 81.140625 -14.015625 C 91.453125 -14.015625 99.816406 -15.8125 106.234375 -19.40625 C 112.660156 -23.007812 117.378906 -27.582031 120.390625 -33.125 C 123.410156 -38.675781 124.921875 -44.175781 124.921875 -49.625 L 144.484375 -49.625 L 144.484375 -48.453125 C 144.484375 -40.472656 142.242188 -32.492188 137.765625 -24.515625 C 133.285156 -16.535156 126.375 -9.921875 117.03125 -4.671875 C 107.695312 0.578125 95.734375 3.203125 81.140625 3.203125 C 65.578125 3.203125 52.878906 -0.25 43.046875 -7.15625 C 33.222656 -14.0625 25.972656 -23.398438 21.296875 -35.171875 C 16.628906 -46.941406 14.296875 -59.929688 14.296875 -74.140625 L 14.296875 -80.5625 C 14.296875 -94.957031 16.582031 -107.992188 21.15625 -119.671875 C 25.726562 -131.347656 32.878906 -140.640625 42.609375 -147.546875 C 52.335938 -154.453125 64.695312 -157.90625 79.6875 -157.90625 C 94.863281 -157.90625 107.21875 -154.453125 116.75 -147.546875 C 126.28125 -140.640625 133.285156 -131.347656 137.765625 -119.671875 C 142.242188 -107.992188 144.484375 -94.957031 144.484375 -80.5625 Z M 79.390625 -140.6875 C 64.796875 -140.6875 53.847656 -135.722656 46.546875 -125.796875 C 39.253906 -115.867188 35.414062 -102.539062 35.03125 -85.8125 L 123.75 -85.8125 C 123.164062 -102.539062 119.320312 -115.867188 112.21875 -125.796875 C 105.125 -135.722656 94.179688 -140.6875 79.390625 -140.6875 Z M 79.390625 -140.6875 "/></g></g></g><g fill="#000000" fill-opacity="1"><g transform="translate(718.603551, 510.446728)"><g><path d="M 35.03125 -73.84375 C 35.03125 -56.132812 38.53125 -41.925781 45.53125 -31.21875 C 52.539062 -20.519531 63.726562 -15.171875 79.09375 -15.171875 C 88.820312 -15.171875 96.554688 -16.972656 102.296875 -20.578125 C 108.035156 -24.179688 112.171875 -28.945312 114.703125 -34.875 C 117.234375 -40.8125 118.5 -47.085938 118.5 -53.703125 L 138.0625 -53.703125 L 138.0625 -49.03125 C 138.0625 -40.863281 136.066406 -32.789062 132.078125 -24.8125 C 128.085938 -16.832031 121.757812 -10.164062 113.09375 -4.8125 C 104.4375 0.53125 93.007812 3.203125 78.8125 3.203125 C 63.820312 3.203125 51.5625 -0.25 42.03125 -7.15625 C 32.5 -14.0625 25.492188 -23.347656 21.015625 -35.015625 C 16.535156 -46.691406 14.296875 -59.632812 14.296875 -73.84375 L 14.296875 -80.84375 C 14.296875 -95.25 16.535156 -108.238281 21.015625 -119.8125 C 25.492188 -131.394531 32.5 -140.640625 42.03125 -147.546875 C 51.5625 -154.453125 63.820312 -157.90625 78.8125 -157.90625 C 93.007812 -157.90625 104.4375 -155.128906 113.09375 -149.578125 C 121.757812 -144.035156 128.085938 -137.128906 132.078125 -128.859375 C 136.066406 -120.585938 138.0625 -112.269531 138.0625 -103.90625 L 138.0625 -98.0625 L 118.5 -98.0625 C 118.5 -109.9375 115.429688 -119.8125 109.296875 -127.6875 C 103.171875 -135.570312 93.101562 -139.515625 79.09375 -139.515625 C 63.726562 -139.515625 52.539062 -134.160156 45.53125 -123.453125 C 38.53125 -112.753906 35.03125 -98.550781 35.03125 -80.84375 Z M 35.03125 -73.84375 "/></g></g></g><g fill="#000000" fill-opacity="1"><g transform="translate(870.958992, 510.446728)"><g><path d="M 18.96875 0 L 18.96875 -233.5 L 39.40625 -233.5 L 39.40625 -72.96875 L 112.953125 -154.6875 L 138.34375 -154.6875 L 85.234375 -96.03125 L 138.34375 0 L 115 0 L 71.21875 -80.5625 L 39.40625 -45.53125 L 39.40625 0 Z M 18.96875 0 "/></g></g></g><g fill="#047d43" fill-opacity="1"><g transform="translate(1038.156233, 510.446728)"><g><path d="M 94.5625 3.203125 C 68.6875 3.203125 49.226562 -5.5 36.1875 -22.90625 C 23.15625 -40.320312 16.640625 -68.6875 16.640625 -108 L 16.640625 -119.671875 C 16.640625 -159.171875 23.15625 -187.578125 36.1875 -204.890625 C 49.226562 -222.210938 68.6875 -230.875 94.5625 -230.875 C 120.632812 -230.875 140.191406 -222.210938 153.234375 -204.890625 C 166.273438 -187.578125 172.796875 -159.171875 172.796875 -119.671875 L 172.796875 -108 C 172.796875 -68.6875 166.273438 -40.320312 153.234375 -22.90625 C 140.191406 -5.5 120.632812 3.203125 94.5625 3.203125 Z M 93.6875 -15.765625 L 95.734375 -15.765625 C 114.804688 -15.765625 128.816406 -23.0625 137.765625 -37.65625 C 146.710938 -52.25 151.1875 -75.695312 151.1875 -108 L 151.1875 -119.671875 C 151.1875 -152.160156 146.710938 -175.65625 137.765625 -190.15625 C 128.816406 -204.65625 114.804688 -211.90625 95.734375 -211.90625 L 93.6875 -211.90625 C 74.625 -211.90625 60.613281 -204.65625 51.65625 -190.15625 C 42.707031 -175.65625 38.234375 -152.160156 38.234375 -119.671875 L 38.234375 -108 C 38.234375 -75.695312 42.707031 -52.25 51.65625 -37.65625 C 60.613281 -23.0625 74.625 -15.765625 93.6875 -15.765625 Z M 93.6875 -15.765625 "/></g></g></g><g fill="#047d43" fill-opacity="1"><g transform="translate(1227.578977, 510.446728)"><g><path d="M 170.75 -227.65625 L 170.75 0 L 147.984375 0 L 40.28125 -192.046875 L 41.453125 -139.21875 L 41.453125 0 L 21.59375 0 L 21.59375 -227.65625 L 44.359375 -227.65625 L 151.78125 -35.609375 L 150.90625 -88.4375 L 150.90625 -227.65625 Z M 170.75 -227.65625 "/></g></g></g><g fill="#047d43" fill-opacity="1"><g transform="translate(1419.926493, 510.446728)"><g/></g></g><g fill="#00d756" fill-opacity="1"><g transform="translate(1051.590256, 494.775274)"><g><path d="M 94.5625 3.203125 C 68.6875 3.203125 49.226562 -5.5 36.1875 -22.90625 C 23.15625 -40.320312 16.640625 -68.6875 16.640625 -108 L 16.640625 -119.671875 C 16.640625 -159.171875 23.15625 -187.578125 36.1875 -204.890625 C 49.226562 -222.210938 68.6875 -230.875 94.5625 -230.875 C 120.632812 -230.875 140.191406 -222.210938 153.234375 -204.890625 C 166.273438 -187.578125 172.796875 -159.171875 172.796875 -119.671875 L 172.796875 -108 C 172.796875 -68.6875 166.273438 -40.320312 153.234375 -22.90625 C 140.191406 -5.5 120.632812 3.203125 94.5625 3.203125 Z M 93.6875 -15.765625 L 95.734375 -15.765625 C 114.804688 -15.765625 128.816406 -23.0625 137.765625 -37.65625 C 146.710938 -52.25 151.1875 -75.695312 151.1875 -108 L 151.1875 -119.671875 C 151.1875 -152.160156 146.710938 -175.65625 137.765625 -190.15625 C 128.816406 -204.65625 114.804688 -211.90625 95.734375 -211.90625 L 93.6875 -211.90625 C 74.625 -211.90625 60.613281 -204.65625 51.65625 -190.15625 C 42.707031 -175.65625 38.234375 -152.160156 38.234375 -119.671875 L 38.234375 -108 C 38.234375 -75.695312 42.707031 -52.25 51.65625 -37.65625 C 60.613281 -23.0625 74.625 -15.765625 93.6875 -15.765625 Z M 93.6875 -15.765625 "/></g></g></g><g fill="#00d756" fill-opacity="1"><g transform="translate(1241.013, 494.775274)"><g><path d="M 170.75 -227.65625 L 170.75 0 L 147.984375 0 L 40.28125 -192.046875 L 41.453125 -139.21875 L 41.453125 0 L 21.59375 0 L 21.59375 -227.65625 L 44.359375 -227.65625 L 151.78125 -35.609375 L 150.90625 -88.4375 L 150.90625 -227.65625 Z M 170.75 -227.65625 "/></g></g></g><g fill="#00d756" fill-opacity="1"><g transform="translate(1433.360516, 494.775274)"><g/></g></g></svg>